# xmcd
#
# Track frame offsets: 
#        150
#        17867
#        34613
#        50785
#        70778
#        81530
#        100325
#        118092
#        130074
#        144249
#        165913
#        183026
#
# Disc length: 2616 seconds
#
# Revision: 0
# Processed by: cddbd v1.4b42PL1 Copyright (c) Steve Scherf et al.
# Submitted via: ExactAudioCopy v0.90a11
#
DISCID=9c0a360c
DTITLE=Nicole Edwards - On With My Day
DYEAR=1900
DGENRE=
TTITLE0=Second Thoughs
TTITLE1=Spit
TTITLE2=Neighbor
TTITLE3=Mon Joe
TTITLE4=History
TTITLE5=Elle va me Suivre
TTITLE6=Lemon Meringue Pie
TTITLE7=Birthday
TTITLE8=Berry Pickin'
TTITLE9=Adventurer
TTITLE10=Home to Me
TTITLE11=Precious Rain
EXTD=
EXTT0=
EXTT1=
EXTT2=
EXTT3=
EXTT4=
EXTT5=
EXTT6=
EXTT7=
EXTT8=
EXTT9=
EXTT10=
EXTT11=
PLAYORDER=
